<svg
  aria-hidden="true"
  xmlns="http://www.w3.org/2000/svg"
>
  <defs>
    <!-- Header icons -->
    <symbol
      id="search"
      viewBox="0 0 25 22"
    >
      <path
        d="M24.6582 18.572L19.79 14.3895C19.5703 14.2007 19.2725 14.0958 18.96 14.0958H18.1641C19.5117 12.6149 20.3125 10.7522 20.3125 8.72596C20.3125 3.90571 15.7666 0 10.1562 0C4.5459 0 0 3.90571 0 8.72596C0 13.5462 4.5459 17.4519 10.1562 17.4519C12.5146 17.4519 14.6826 16.7639 16.4062 15.6061V16.2899C16.4062 16.5584 16.5283 16.8143 16.748 17.003L21.6162 21.1856C22.0752 21.58 22.8174 21.58 23.2715 21.1856L24.6533 19.9984C25.1123 19.6041 25.1123 18.9664 24.6582 18.572ZM10.1562 14.0958C6.7041 14.0958 3.90625 11.6961 3.90625 8.72596C3.90625 5.75998 6.69922 3.35614 10.1562 3.35614C13.6084 3.35614 16.4062 5.75578 16.4062 8.72596C16.4062 11.692 13.6133 14.0958 10.1562 14.0958Z"
        fill="#2F2E2E"
      />
    </symbol>

    <!-- Slider icons -->
    <symbol
      id="next-arrow"
      viewBox="0 0 23 24"
    >
      <path
        d="M9.77904 22.3925L10.9186 23.6125C11.4012 24.1292 12.1815 24.1292 12.6589 23.6125L22.6381 12.9343C23.1206 12.4177 23.1206 11.5823 22.6381 11.0712L12.6589 0.387451C12.1763 -0.12915 11.396 -0.12915 10.9186 0.387451L9.77904 1.60751C9.29137 2.12961 9.30164 2.98145 9.79958 3.49256L15.9853 9.80169H1.23201C0.549269 9.80169 0 10.3897 0 11.1207V12.8793C0 13.6103 0.549269 14.1983 1.23201 14.1983H15.9853L9.79958 20.5074C9.29651 21.0185 9.28624 21.8704 9.77904 22.3925Z"
        fill="#3C3D41"
      />
    </symbol>

    <symbol
      id="prev-arrow"
      viewBox="0 0 31 32"
    >
      <path
        d="M17.628 29.857l-1.519 1.627c-0.643 0.689-1.684 0.689-2.32 0l-13.306-14.238c-0.643-0.689-0.643-1.803 0-2.484l13.306-14.245c0.643-0.689 1.684-0.689 2.32 0l1.519 1.627c0.65 0.696 0.637 1.832-0.027 2.513l-8.248 8.412h19.671c0.91 0 1.643 0.784 1.643 1.759v2.345c0 0.975-0.732 1.759-1.643 1.759h-19.671l8.248 8.412c0.671 0.681 0.685 1.817 0.027 2.513z"
      ></path>
    </symbol>

    <!-- Modal icons -->
    <symbol
      id="icon-close"
      viewBox="0 0 32 32"
    >
      <path
        d="M31.439 3.166l-3.166-3.166-12.553 12.553-12.553-12.553-3.166 3.166 12.553 12.553-12.553 12.553 3.166 3.166 12.553-12.553 12.553 12.553 3.166-3.166-12.553-12.553 12.553-12.553z"
      ></path>
    </symbol>
    <symbol
      id="envelope"
      viewBox="0 0 640 512"
    >
      <path
        d="M464 64C490.5 64 512 85.49 512 112C512 127.1 504.9 141.3 492.8 150.4L478.9 160.8C412.3 167.2 356.5 210.8 332.6 270.6L275.2 313.6C263.8 322.1 248.2 322.1 236.8 313.6L19.2 150.4C7.113 141.3 0 127.1 0 112C0 85.49 21.49 64 48 64H464zM294.4 339.2L320.8 319.4C320.3 324.9 320 330.4 320 336C320 378.5 335.1 417.6 360.2 448H64C28.65 448 0 419.3 0 384V176L217.6 339.2C240.4 356.3 271.6 356.3 294.4 339.2zM640 336C640 415.5 575.5 480 496 480C416.5 480 352 415.5 352 336C352 256.5 416.5 192 496 192C575.5 192 640 256.5 640 336zM540.7 292.7L480 353.4L451.3 324.7C445.1 318.4 434.9 318.4 428.7 324.7C422.4 330.9 422.4 341.1 428.7 347.3L468.7 387.3C474.9 393.6 485.1 393.6 491.3 387.3L563.3 315.3C569.6 309.1 569.6 298.9 563.3 292.7C557.1 286.4 546.9 286.4 540.7 292.7H540.7z"
      />
    </symbol>

    <symbol
      id="mobile"
      viewBox="0 0 384 512"
    >
      <path
        d="M304 0h-224c-35.35 0-64 28.65-64 64v384c0 35.35 28.65 64 64 64h224c35.35 0 64-28.65 64-64V64C368 28.65 339.3 0 304 0zM192 480c-17.75 0-32-14.25-32-32s14.25-32 32-32s32 14.25 32 32S209.8 480 192 480zM304 64v320h-224V64H304z"
      />
    </symbol>
    <symbol
      id="profile"
      viewBox="0 0 576 512"
    >
      <path
        d="M512 32H64C28.65 32 0 60.65 0 96v320c0 35.35 28.65 64 64 64h448c35.35 0 64-28.65 64-64V96C576 60.65 547.3 32 512 32zM176 128c35.35 0 64 28.65 64 64s-28.65 64-64 64s-64-28.65-64-64S140.7 128 176 128zM272 384h-192C71.16 384 64 376.8 64 368C64 323.8 99.82 288 144 288h64c44.18 0 80 35.82 80 80C288 376.8 280.8 384 272 384zM496 320h-128C359.2 320 352 312.8 352 304S359.2 288 368 288h128C504.8 288 512 295.2 512 304S504.8 320 496 320zM496 256h-128C359.2 256 352 248.8 352 240S359.2 224 368 224h128C504.8 224 512 231.2 512 240S504.8 256 496 256zM496 192h-128C359.2 192 352 184.8 352 176S359.2 160 368 160h128C504.8 160 512 167.2 512 176S504.8 192 496 192z"
      />
    </symbol>

    <symbol
      id="send"
      viewBox="0 0 512 512"
    >
      <path
        d="M511.6 36.86l-64 415.1c-1.5 9.734-7.375 18.22-15.97 23.05c-4.844 2.719-10.27 4.097-15.68 4.097c-4.188 0-8.319-.8154-12.29-2.472l-122.6-51.1l-50.86 76.29C226.3 508.5 219.8 512 212.8 512C201.3 512 192 502.7 192 491.2v-96.18c0-7.115 2.372-14.03 6.742-19.64L416 96l-293.7 264.3L19.69 317.5C8.438 312.8 .8125 302.2 .0625 289.1s5.469-23.72 16.06-29.77l448-255.1c10.69-6.109 23.88-5.547 34 1.406S513.5 24.72 511.6 36.86z"
      />
    </symbol>

    <symbol
      id="checked"
      viewBox="0 0 448 512"
    >
      <path
        d="M211.8 339.8C200.9 350.7 183.1 350.7 172.2 339.8L108.2 275.8C97.27 264.9 97.27 247.1 108.2 236.2C119.1 225.3 136.9 225.3 147.8 236.2L192 280.4L300.2 172.2C311.1 161.3 328.9 161.3 339.8 172.2C350.7 183.1 350.7 200.9 339.8 211.8L211.8 339.8zM0 96C0 60.65 28.65 32 64 32H384C419.3 32 448 60.65 448 96V416C448 451.3 419.3 480 384 480H64C28.65 480 0 451.3 0 416V96zM48 96V416C48 424.8 55.16 432 64 432H384C392.8 432 400 424.8 400 416V96C400 87.16 392.8 80 384 80H64C55.16 80 48 87.16 48 96z"
      />
    </symbol>
    <symbol
      id="unchecked"
      viewBox="0 0 448 512"
    >
      <path
        d="M0 96C0 60.65 28.65 32 64 32H384C419.3 32 448 60.65 448 96V416C448 451.3 419.3 480 384 480H64C28.65 480 0 451.3 0 416V96ZM48 96V416C48 424.8 55.16 432 64 432H384C392.8 432 400 424.8 400 416V96C400 87.16 392.8 80 384 80H64C55.16 80 48 87.16 48 96Z"
      />
    </symbol>
    <symbol
      id="icon-warning"
      viewBox="0 0 512 512"
    >
      <path
        d="M506.3 417l-213.3-364c-16.33-28-57.54-28-73.98 0l-213.2 364C-10.59 444.9 9.849 480 42.74 480h426.6C502.1 480 522.6 445 506.3 417zM232 168c0-13.25 10.75-24 24-24S280 154.8 280 168v128c0 13.25-10.75 24-23.1 24S232 309.3 232 296V168zM256 416c-17.36 0-31.44-14.08-31.44-31.44c0-17.36 14.07-31.44 31.44-31.44s31.44 14.08 31.44 31.44C287.4 401.9 273.4 416 256 416z"
      />
    </symbol>
    <symbol
      id="icon-success"
      viewBox="0 0 512 512"
    >
      <path
        d="M0 256C0 114.6 114.6 0 256 0C397.4 0 512 114.6 512 256C512 397.4 397.4 512 256 512C114.6 512 0 397.4 0 256zM371.8 211.8C382.7 200.9 382.7 183.1 371.8 172.2C360.9 161.3 343.1 161.3 332.2 172.2L224 280.4L179.8 236.2C168.9 225.3 151.1 225.3 140.2 236.2C129.3 247.1 129.3 264.9 140.2 275.8L204.2 339.8C215.1 350.7 232.9 350.7 243.8 339.8L371.8 211.8z"
      />
    </symbol>

  </defs>
</svg>
